<svg xmlns="http://www.w3.org/2000/svg" viewBox="0 0 582.93 170.22"><defs><style>.cls-1{fill:#f39719;}.cls-2{fill:#1d1d1b;}</style></defs><title>Fichier 5</title><g id="Calque_2" data-name="Calque 2"><g id="Calque_1-2" data-name="Calque 1"><path class="cls-1" d="M198.94,163.57c32-1,55.41-11.17,72.48-33.28,24.07-31.18,19.94-74-9.35-101-33-30.52-86.74-30.07-119.24,1-42.89,41-25.44,110.15,32.69,128.58C184.31,161.61,193.71,162.55,198.94,163.57Zm-.05-4.39c-4.36-.81-12.83-1.61-20.81-4-52.81-15.77-72.14-77.15-37-116.87,28.78-32.55,79.94-36.77,114-9.41,31.8,25.56,36.94,69.58,11.37,100.71C250.22,149.36,228.58,158.49,198.89,159.18Z"/><path class="cls-1" d="M174.8,138.18c0-13,0-25.33,0-37.65,0-1,0-2.46-.6-2.94-5.24-4.12-3.85-9.75-3.68-15a38.49,38.49,0,0,1,1.92-11.29q.34,7,.7,14h.76l1-13.24.9,0V85.26l1,0q.36-6.53.71-13l1,0V85l1.18.09c.28-4.61.09-9.41,1.39-13.76.34,0-.34,0,0,0,1.07,6.24,1.11,13.07,1.24,19.64a5.07,5.07,0,0,1-1.3,3.67c-3.4,2.69-3.06,6.14-2.9,9.8.48,11,.87,21.93,1.06,32.9,0,3,1.18,4.39,4,5,5.07,1,10.11,2.13,16.13,3.42V69.64c.11-.63.18-2.73.68-2.85.88,1.4,3.22,5.22,3.36,6.69,1.1,12.24,4.42,25,2.17,36.62s.18,22.49-1,33.63c0,.4.28.83.78,2.18,6.12-1.3,12.36-2.5,18.5-4.06,1-.24,2.1-2.1,2.15-3.26q.85-19.59,1.27-39.21c0-1.2-1-2.7-2-3.59-6.13-5.47-6.57-17.93-.72-23.67,2.77-2.72,6.63-2.51,9.22.52,5.46,6.36,4.76,17.59-1.38,23.29-.81.76-1.79,1.92-1.77,2.87.3,13,.77,26.09,1.22,40,2.11-1.11,3.56-1.8,4.93-2.62,20.48-12.19,31.83-35.14,28.24-57C261,55.62,243,36.61,219.07,30.85c-34.2-8.26-68.26,10.68-76.72,42.66-6.48,24.5,5.92,52,28.71,63.61A27.13,27.13,0,0,0,174.8,138.18Z"/><path class="cls-2" d="M66.2,5.15A49.48,49.48,0,0,1,93.13,32.08,51,51,0,0,1,97,51.83,49.17,49.17,0,0,1,86,83.2a49.66,49.66,0,0,1,10.77,16,48.87,48.87,0,0,1,3.83,19.15,50.39,50.39,0,0,1-3.83,19.51A49.33,49.33,0,0,1,86,154.06,50.69,50.69,0,0,1,69.67,165a49.19,49.19,0,0,1-19.39,4H3.59a4,4,0,0,1-2.51-.83A2.73,2.73,0,0,1,0,165.79V4.91c0-2.4,1.2-3.59,3.59-3.59H46.45A51,51,0,0,1,66.2,5.15ZM34,33.64V69.31H46.45a16,16,0,0,0,12.09-5.15,17.23,17.23,0,0,0,4.9-12.33,18.52,18.52,0,0,0-4.9-12.69,15.59,15.59,0,0,0-12.09-5.5ZM50.28,136.58a15.83,15.83,0,0,0,12-5.38,18.13,18.13,0,0,0,5-12.81,17.14,17.14,0,0,0-5-12.21,16,16,0,0,0-12-5.27H34v35.67Z"/><path class="cls-2" d="M337.29,0a3.45,3.45,0,0,1,2.52,1.08,3.43,3.43,0,0,1,1.08,2.51V121.14a15.94,15.94,0,0,0,16.28,16.28,16.87,16.87,0,0,0,12.09-4.67,15.36,15.36,0,0,0,4.9-11.61V3.59a3.43,3.43,0,0,1,1.08-2.51A3.45,3.45,0,0,1,377.76,0h26.33a3.42,3.42,0,0,1,2.51,1.08,3.43,3.43,0,0,1,1.08,2.51V120a50.19,50.19,0,0,1-14.6,35.43,50.69,50.69,0,0,1-16.28,10.89,49.37,49.37,0,0,1-19.39,3.95,47.67,47.67,0,0,1-19.16-3.95,51.44,51.44,0,0,1-16-10.89,52.76,52.76,0,0,1-11-16.16A47.12,47.12,0,0,1,307.13,120V3.59a3.43,3.43,0,0,1,1.08-2.51A3.42,3.42,0,0,1,310.72,0Z"/><path class="cls-1" d="M495.43,31.48a3.67,3.67,0,0,1-2.52,1H463.23V68.35h29.68a3.3,3.3,0,0,1,2.52,1.2,3.65,3.65,0,0,1,1.07,2.39V96.12a3.65,3.65,0,0,1-1.07,2.4,3.29,3.29,0,0,1-2.52,1.19H463.23v66.08a2.73,2.73,0,0,1-1.08,2.28,4,4,0,0,1-2.52.83H432.82a3.93,3.93,0,0,1-2.51-.83,2.73,2.73,0,0,1-1.08-2.28V4.91c0-2.4,1.2-3.59,3.59-3.59h60.09c2.4,0,3.59,1.19,3.59,3.59v23.7A3.65,3.65,0,0,1,495.43,31.48Z"/><path class="cls-1" d="M581.85,31.48a3.65,3.65,0,0,1-2.51,1H549.65V68.35h29.69a3.28,3.28,0,0,1,2.51,1.2,3.61,3.61,0,0,1,1.08,2.39V96.12a3.62,3.62,0,0,1-1.08,2.4,3.27,3.27,0,0,1-2.51,1.19H549.65v66.08a2.73,2.73,0,0,1-1.08,2.28,3.93,3.93,0,0,1-2.51.83H519.25a4,4,0,0,1-2.52-.83,2.73,2.73,0,0,1-1.07-2.28V4.91c0-2.4,1.19-3.59,3.59-3.59h60.09c2.39,0,3.59,1.19,3.59,3.59v23.7A3.62,3.62,0,0,1,581.85,31.48Z"/></g></g></svg>